<?xml version="1.0" encoding="UTF-8" standalone="no"?><!DOCTYPE svg PUBLIC "-//W3C//DTD SVG 1.1//EN" "http://www.w3.org/Graphics/SVG/1.1/DTD/svg11.dtd"><svg width="100%" height="100%" viewBox="0 0 16 16" version="1.1" xmlns="http://www.w3.org/2000/svg" xmlns:xlink="http://www.w3.org/1999/xlink" xml:space="preserve" xmlns:serif="http://www.serif.com/" style="fill-rule:evenodd;clip-rule:evenodd;stroke-linejoin:round;stroke-miterlimit:2;"><g><g transform="matrix(1.14286,0,0,1.11731,-1.14286,-1.11731)"><path d="M15,1.895C15,1.401 14.608,1 14.125,1L1.875,1C1.392,1 1,1.401 1,1.895L1,14.425C1,14.919 1.392,15.32 1.875,15.32L14.125,15.32C14.608,15.32 15,14.919 15,14.425L15,1.895ZM13.25,2.79L13.25,11.74C13.25,11.74 2.75,11.74 2.75,11.74C2.75,11.74 2.75,2.79 2.75,2.79L13.25,2.79Z" style="fill:rgb(224,224,224);"/></g><g transform="matrix(0.6257,0,0,0.6257,3.62158,1.67975)"><path d="M4.122,15.761L4.122,13.668L4.123,13.668C4.504,13.668 4.87,13.517 5.139,13.247C5.409,12.978 5.56,12.612 5.56,12.231C5.56,9.364 5.56,3.205 5.56,3.205L4.409,3.205C3.986,3.205 3.579,3.373 3.28,3.673C2.981,3.972 2.812,4.378 2.812,4.802C2.812,5.088 2.812,5.298 2.812,5.298L0.959,5.298L0.959,1.112L13.036,1.112L13.036,5.298L11.183,5.298L11.183,4.802C11.183,4.378 11.015,3.972 10.715,3.673C10.416,3.373 10.01,3.205 9.586,3.205C8.981,3.205 8.435,3.205 8.435,3.205L8.435,12.231C8.435,12.612 8.587,12.978 8.856,13.247C9.126,13.517 9.491,13.668 9.872,13.668C9.873,13.668 9.873,13.668 9.873,13.668L9.873,15.761L4.122,15.761Z" style="fill:rgb(224,224,224);fill-rule:nonzero;"/></g></g></svg>